<?xml version="1.0"?>
<svg xmlns="http://www.w3.org/2000/svg" id="Capa_1" enable-background="new 0 0 512 512" height="512px" viewBox="0 0 512 512" width="512px" class=""><g><g><g><path d="m293.599 312.189h92.947v55.768h-92.947z" fill="#2b4d66" transform="matrix(.707 -.707 .707 .707 -140.863 340.073)" data-original="#2B4D66" class=""/></g><g><path d="m351.623 351.623h55.768v55.768h-55.768z" fill="#4a80aa" transform="matrix(.707 -.707 .707 .707 -157.197 379.507)" data-original="#4A80AA" class=""/></g><g><path d="m504.489 438.765-.027 65.697-65.697.027-72.403-72.403 65.724-65.724z" fill="#eab14d" data-original="#EAB14D" class="" style="fill:#DD636E" data-old_color="#eab14d"/></g><g><path d="m504.489 438.765-.027 43.789-94.284-94.284 21.908-21.908z" fill="#e7a52e" data-original="#E7A52E" class="" style="fill:#DA4A54" data-old_color="#e7a52e"/></g><g><circle cx="193.29" cy="193.29" fill="#eab14d" r="185.895" data-original="#EAB14D" class="" style="fill:#DD636E" data-old_color="#eab14d"/></g><g><path d="m305.708 45.242c23.743 31.22 37.847 70.169 37.847 112.418 0 102.667-83.228 185.895-185.895 185.895-42.249 0-81.199-14.104-112.418-37.846 33.954 44.646 87.63 73.476 148.048 73.476 102.667 0 185.895-83.228 185.895-185.895 0-60.418-28.831-114.095-73.477-148.048z" fill="#e7a52e" data-original="#E7A52E" class="" style="fill:#DA4A54" data-old_color="#e7a52e"/></g><g><circle cx="193.29" cy="193.29" fill="#e4f6ff" r="136.323" data-original="#E4F6FF" class=""/></g><g><path d="m275.613 84.632c17.358 22.875 27.664 51.394 27.664 82.323 0 75.289-61.034 136.323-136.323 136.323-30.93 0-59.448-10.307-82.323-27.664 24.895 32.807 64.299 54 108.658 54 75.289 0 136.323-61.034 136.323-136.323.001-44.36-21.192-83.765-53.999-108.659z" fill="#d3effb" data-original="#D3EFFB" class=""/></g><g><path d="m176.115 112.466h34.35v161.648h-34.35z" fill="#dd636e" transform="matrix(0 1 -1 0 386.58 0)" data-original="#DD636E" class="" style="fill:#F6E781" data-old_color="#dd636e"/></g><g><path d="m274.114 217.967c4.143 0 7.501-3.359 7.501-7.501v-34.35c0-4.143-3.359-7.501-7.501-7.501h-161.648c-4.143 0-7.501 3.359-7.501 7.501v34.35c0 4.143 3.359 7.501 7.501 7.501zm-154.146-34.351h146.645v19.347h-146.645z" data-original="#000000" class="active-path" style="fill:#000000" data-old_color="#000000"/><path d="m509.803 433.472-72.403-72.403c-2.929-2.929-7.679-2.929-10.608 0l-7.84 7.84-28.836-28.836 7.84-7.84c2.93-2.929 2.93-7.679 0-10.608l-35.163-35.164c7.208-13.09 12.909-26.995 16.903-41.438 8.581-31.03 9.285-64.025 2.038-95.417-.932-4.037-4.962-6.555-8.996-5.622-4.037.932-6.554 4.96-5.622 8.996 13.953 60.44-3.865 122.672-47.664 166.47-34.785 34.78-80.461 52.169-126.15 52.165-45.678-.004-91.37-17.392-126.141-52.164-69.553-69.562-69.553-182.74 0-252.291 69.552-69.552 182.729-69.552 252.291 0 15.705 15.705 28.17 33.862 37.049 53.967 1.674 3.791 6.106 5.506 9.893 3.832 3.79-1.674 5.505-6.103 3.832-9.893-9.631-21.807-23.145-41.494-40.166-58.514-75.411-75.401-198.106-75.401-273.507 0s-75.402 198.096 0 273.508c37.705 37.705 87.219 56.556 136.75 56.551 32.126-.003 64.257-7.948 93.161-23.815l35.162 35.161c1.465 1.465 3.384 2.197 5.304 2.197s3.84-.733 5.304-2.197l7.84-7.84 28.836 28.836-7.84 7.84c-2.93 2.929-2.93 7.679 0 10.608l21.624 21.624c1.465 1.465 3.384 2.197 5.304 2.197 1.919 0 3.84-.733 5.304-2.197 2.93-2.929 2.93-7.679 0-10.608l-16.319-16.32 55.114-55.114 67.099 67.099c2.929 2.929 7.679 2.929 10.608 0 2.929-2.931 2.929-7.681-.001-10.61zm-182.875-51.429-27.22-27.22c10.734-7.074 20.913-15.329 30.351-24.765 9.29-9.29 17.564-19.486 24.743-30.372l27.241 27.241zm23.753-2.536 28.826-28.826 28.836 28.836-28.826 28.826z" data-original="#000000" class="active-path" style="fill:#000000" data-old_color="#000000"/><path d="m418.046 473.16c-2.929-2.929-7.679-2.929-10.608 0-2.93 2.929-2.93 7.679 0 10.608l26.035 26.035c1.465 1.465 3.384 2.197 5.304 2.197s3.84-.733 5.304-2.197c2.93-2.929 2.93-7.679 0-10.608z" data-original="#000000" class="active-path" style="fill:#000000" data-old_color="#000000"/><path d="m60.049 163.555c-4.081-.678-7.949 2.089-8.625 6.176-7.562 45.717 7.459 92.547 40.183 125.271 27.161 27.166 63.277 42.128 101.694 42.128 38.416 0 74.535-14.961 101.701-42.127s42.127-63.284 42.127-101.701-14.961-74.533-42.127-101.693c-27.166-27.166-63.284-42.127-101.701-42.127s-74.533 14.961-101.692 42.125c-12.484 12.474-22.43 26.888-29.561 42.843-1.691 3.782.005 8.219 3.787 9.91 3.782 1.69 8.218-.005 9.91-3.787 6.381-14.275 15.286-27.178 26.471-38.355 24.328-24.332 56.676-37.732 91.085-37.732s66.76 13.4 91.093 37.733c24.332 24.328 37.732 56.676 37.732 91.085 0 34.41-13.4 66.76-37.733 91.093-24.333 24.332-56.683 37.733-91.092 37.733s-66.757-13.4-91.086-37.733c-29.311-29.311-42.765-71.26-35.991-112.214.678-4.091-2.088-7.952-6.175-8.628z" data-original="#000000" class="active-path" style="fill:#000000" data-old_color="#000000"/></g></g></g> </svg>
